# xmcd CD database file
#
# Track frame offsets:
#	150
#	14833
#	45756
#	55858
#	103421
#	137711
#	156295
#	176399
#	185922
#	197178
#
# Disc length: 2805 seconds
#
# Revision: 0
# Processed by: cddbd v1.5.2PL0 Copyright (c) Steve Scherf et al.
# Submitted via: CDex 1.70beta3
#
DISCID=8e0af30a
DTITLE=TYPE-MOONエース VOL.3付録 ドラマCD  - 路地裏ピラミッド
DYEAR=2009
DGENRE=ドラマCD
TTITLE0=路地裏ピラミッド
TTITLE1=路地裏ピラミッド
TTITLE2=路地裏ピラミッド
TTITLE3=路地裏ピラミッド
TTITLE4=路地裏ピラミッド
TTITLE5=路地裏ピラミッド
TTITLE6=路地裏ピラミッド
TTITLE7=路地裏ピラミッド
TTITLE8=路地裏ピラミッド
TTITLE9=路地裏ピラミッド
EXTD=YEAR: 2009
EXTT0=
EXTT1=
EXTT2=
EXTT3=
EXTT4=
EXTT5=
EXTT6=
EXTT7=
EXTT8=
EXTT9=
PLAYORDER=
